<svg viewBox="0 0 586 139" version="1.1" xmlns="http://www.w3.org/2000/svg" xmlns:xlink="http://www.w3.org/1999/xlink">
  <g stroke="none" stroke-width="1" fill="none" fill-rule="evenodd">
      <path class="l" fill="#399186" d="M352.502,0.14 L340.953,0.14 C339.887,0.14 339.022,1.004 339.022,2.07 L339.022,106.08 C339.022,107.146 339.887,108.011 340.953,108.011 L352.502,108.011 C353.568,108.011 354.432,107.146 354.432,106.08 L354.432,2.07 C354.432,1.004 353.568,0.14 352.502,0.14"></path>
      <path class="b" fill="#399186" d="M38.525,92.601 C25.78,92.601 15.41,82.231 15.41,69.486 C15.41,56.74 25.78,46.37 38.525,46.37 C51.271,46.37 61.64,56.74 61.64,69.486 C61.64,82.231 51.271,92.601 38.525,92.601 Z M38.525,30.96 C29.852,30.96 21.849,33.828 15.41,38.665 L15.41,2.124 C15.41,1.058 14.546,0.194 13.48,0.194 L1.93,0.194 C0.864,0.194 0,1.058 0,2.124 L0,69.1 L0.01,69.1 C0.008,69.229 0,69.356 0,69.486 C0,90.763 17.248,108.011 38.525,108.011 C59.802,108.011 77.051,90.763 77.051,69.486 C77.051,48.209 59.802,30.96 38.525,30.96 L38.525,30.96 Z"></path>
      <path class="n" fill="#399186" d="M292.792,30.96 C284.119,30.96 276.116,33.828 269.677,38.665 L269.677,32.891 C269.677,31.824 268.813,30.96 267.747,30.96 L256.197,30.96 C255.131,30.96 254.267,31.824 254.267,32.891 L254.267,106.08 C254.267,107.146 255.131,108.011 256.197,108.011 L267.747,108.011 C268.813,108.011 269.677,107.146 269.677,106.08 L269.677,69.486 C269.677,56.74 280.046,46.37 292.792,46.37 C305.538,46.37 315.907,56.74 315.907,69.486 L315.907,106.08 C315.907,107.146 316.771,108.011 317.837,108.011 L329.387,108.011 C330.453,108.011 331.317,107.146 331.317,106.08 L331.317,69.486 C331.317,48.209 314.069,30.96 292.792,30.96"></path>
      <path class="e" fill="#399186" d="M101.178,62.72 C104.078,53.265 112.889,46.37 123.281,46.37 C133.673,46.37 142.484,53.265 145.384,62.72 L101.178,62.72 Z M123.281,30.96 C102.004,30.96 84.756,48.209 84.756,69.486 C84.756,90.763 102.004,108.011 123.281,108.011 C123.954,108.011 124.625,107.989 125.296,107.958 L125.327,107.96 L125.382,107.956 C126.007,107.926 126.631,107.876 127.253,107.82 C127.391,107.807 127.53,107.801 127.668,107.787 C128.325,107.721 128.978,107.636 129.629,107.541 C129.731,107.526 129.834,107.517 129.936,107.502 C130.629,107.396 131.318,107.271 132.003,107.132 L132.179,107.1 C137.399,106.027 142.352,104.026 146.666,101.226 C146.757,101.167 146.843,101.102 146.933,101.042 C147.451,100.7 147.964,100.351 148.463,99.985 C148.61,99.878 148.748,99.762 148.893,99.652 C149.326,99.325 149.758,98.997 150.174,98.652 C150.353,98.504 150.522,98.347 150.697,98.196 C151.068,97.877 151.44,97.56 151.797,97.227 C151.989,97.048 152.169,96.858 152.356,96.676 C152.682,96.357 153.011,96.041 153.324,95.711 C153.519,95.504 153.702,95.287 153.892,95.076 C154.149,94.79 154.415,94.511 154.662,94.217 L154.67,94.195 C155.181,93.586 155.676,92.962 156.141,92.318 C156.833,91.358 156.489,90.002 155.433,89.469 L144.687,84.049 C143.893,83.648 142.93,83.842 142.357,84.522 C141.812,85.169 141.215,85.777 140.58,86.351 C140.065,86.818 139.525,87.262 138.958,87.679 L138.861,87.751 C138.297,88.162 137.707,88.545 137.099,88.905 L136.921,89.015 C136.325,89.362 135.707,89.68 135.076,89.979 C134.986,90.021 134.898,90.068 134.807,90.109 C134.192,90.391 133.56,90.646 132.919,90.882 C132.804,90.924 132.69,90.969 132.575,91.01 C131.945,91.232 131.303,91.427 130.655,91.604 C130.521,91.64 130.388,91.678 130.254,91.713 C129.612,91.877 128.964,92.016 128.31,92.135 C128.164,92.161 128.018,92.188 127.872,92.213 C127.223,92.32 126.57,92.404 125.916,92.466 C125.763,92.481 125.61,92.494 125.457,92.506 C124.732,92.563 124.006,92.601 123.281,92.601 C113.236,92.601 104.672,86.159 101.491,77.191 L159.418,77.188 C160.38,77.188 161.182,76.479 161.332,75.53 C161.404,75.077 161.456,74.618 161.512,74.16 L161.534,74.077 C161.545,73.987 161.549,73.893 161.559,73.802 C161.607,73.371 161.641,72.936 161.675,72.5 C161.697,72.217 161.726,71.936 161.742,71.652 L161.751,71.532 L161.748,71.458 C161.781,70.804 161.806,70.148 161.806,69.486 C161.806,48.209 144.558,30.96 123.281,30.96 L123.281,30.96 Z"></path>
      <path class="a" fill="#399186" d="M208.037,92.601 C195.291,92.601 184.921,82.231 184.921,69.486 C184.921,56.74 195.291,46.37 208.037,46.37 C220.782,46.37 231.152,56.74 231.152,69.486 C231.152,82.231 220.782,92.601 208.037,92.601 Z M244.632,30.96 L233.082,30.96 C232.016,30.96 231.152,31.824 231.152,32.891 L231.152,38.665 C224.713,33.828 216.71,30.96 208.037,30.96 C186.76,30.96 169.511,48.209 169.511,69.486 C169.511,90.763 186.76,108.011 208.037,108.011 C216.71,108.011 224.713,105.143 231.152,100.306 L231.152,106.08 C231.152,107.146 232.016,108.011 233.082,108.011 L244.632,108.011 C245.698,108.011 246.562,107.146 246.562,106.08 L246.562,32.891 C246.562,31.824 245.698,30.96 244.632,30.96 L244.632,30.96 Z"></path>
      <path class="p" fill="#399186" d="M547.059,92.824 C534.313,92.824 523.944,82.455 523.944,69.709 C523.944,56.963 534.313,46.594 547.059,46.594 C559.805,46.594 570.174,56.963 570.174,69.709 C570.174,82.455 559.805,92.824 547.059,92.824 Z M547.059,31.183 C525.782,31.183 508.534,48.432 508.534,69.709 C508.534,69.838 508.542,69.965 508.543,70.094 L508.534,70.094 L508.534,137.07 C508.534,138.136 509.398,139 510.464,139 L522.013,139 C523.08,139 523.944,138.136 523.944,137.07 L523.944,100.529 C530.383,105.367 538.385,108.234 547.059,108.234 C568.336,108.234 585.584,90.986 585.584,69.709 C585.584,48.432 568.336,31.183 547.059,31.183 L547.059,31.183 Z"></path>
      <path class="loop" stroke="#399185" stroke-width="15" d="M400.5,38.5 C383.379173,38.5 369.5,52.3791728 369.5,69.5 C369.5,86.6208272 383.379173,100.5 400.5,100.5 C417.620827,100.5 431.5,86.6208272 431.5,69.5 C431.5,52.3791728 445.379173,38.5 462.5,38.5 C479.620827,38.5 493.5,52.3791728 493.5,69.5 C493.5,86.6208272 479.60909,100.183165 462.5,100.5 C445.379173,100.485533 431.5,86.6063606 431.5,69.4855333 C431.5,52.3791728 417.620827,38.5 400.5,38.5 Z"></path>
      <path class="shadow-2" fill="#258576" d="M431.5,92.3000031 C438,85 438,75 439,69 C439,77 443,83 444,84 C442.292,89.258 440,94 436.188,97.5999985"></path>
      <path class="shadow-1" fill="#258576" d="M419,55 C420.708,49.742 426.778,41.4000015 426.778,41.4000015 C426.778,41.4000015 429.565,44 431.5,46.5999985 C431.5,46.5999985 424,55 424,69 C424.046,63 421.585,58.391 419,55 Z"></path>
  </g>
</svg>