<svg width="112" height="32" viewBox="0 0 112 32" fill="none" xmlns="http://www.w3.org/2000/svg">
<path d="M0.144 9.216H2.064V11.808H2.128C2.42667 11.296 2.8 10.8587 3.248 10.496C3.696 10.112 4.176 9.80267 4.688 9.568C5.22133 9.312 5.776 9.13067 6.352 9.024C6.928 8.896 7.49333 8.832 8.048 8.832C9.17867 8.832 10.2133 9.024 11.152 9.408C12.112 9.792 12.9333 10.336 13.616 11.04C14.32 11.7227 14.864 12.544 15.248 13.504C15.632 14.4427 15.824 15.4773 15.824 16.608C15.824 17.7387 15.632 18.784 15.248 19.744C14.864 20.6827 14.32 21.504 13.616 22.208C12.9333 22.8907 12.112 23.424 11.152 23.808C10.2133 24.192 9.17867 24.384 8.048 24.384C7.49333 24.384 6.928 24.32 6.352 24.192C5.776 24.0853 5.22133 23.9147 4.688 23.68C4.176 23.424 3.696 23.1147 3.248 22.752C2.8 22.368 2.42667 21.92 2.128 21.408H2.064V31.296H0.144V9.216ZM1.872 16.608C1.872 17.44 2.032 18.2293 2.352 18.976C2.672 19.7013 3.10933 20.3413 3.664 20.896C4.21867 21.4293 4.86933 21.856 5.616 22.176C6.36267 22.496 7.17333 22.656 8.048 22.656C8.944 22.656 9.75467 22.496 10.48 22.176C11.2053 21.856 11.824 21.4293 12.336 20.896C12.848 20.3413 13.232 19.7013 13.488 18.976C13.7653 18.2293 13.904 17.44 13.904 16.608C13.904 15.776 13.7653 14.9973 13.488 14.272C13.232 13.5253 12.848 12.8853 12.336 12.352C11.824 11.7973 11.2053 11.36 10.48 11.04C9.75467 10.72 8.944 10.56 8.048 10.56C7.17333 10.56 6.36267 10.72 5.616 11.04C4.86933 11.36 4.21867 11.7973 3.664 12.352C3.10933 12.8853 2.672 13.5253 2.352 14.272C2.032 14.9973 1.872 15.776 1.872 16.608ZM31.6105 17.792C31.6105 18.5173 31.6105 19.168 31.6105 19.744C31.6318 20.32 31.6532 20.8533 31.6745 21.344C31.6958 21.8347 31.7172 22.2933 31.7385 22.72C31.7812 23.1467 31.8345 23.5733 31.8985 24H30.1065C29.9785 23.2747 29.9145 22.4747 29.9145 21.6H29.8505C29.2958 22.56 28.6025 23.264 27.7705 23.712C26.9598 24.16 25.9252 24.384 24.6665 24.384C24.0265 24.384 23.3972 24.2987 22.7785 24.128C22.1598 23.9787 21.6052 23.7333 21.1145 23.392C20.6238 23.0293 20.2185 22.5707 19.8985 22.016C19.5998 21.4613 19.4505 20.7893 19.4505 20C19.4505 18.8693 19.7385 17.9733 20.3145 17.312C20.8905 16.6507 21.5945 16.16 22.4265 15.84C23.2798 15.4987 24.1758 15.2853 25.1145 15.2C26.0745 15.0933 26.9172 15.04 27.6425 15.04H29.8825V14.144C29.8825 12.864 29.4878 11.9467 28.6985 11.392C27.9092 10.8373 26.9172 10.56 25.7225 10.56C24.0158 10.56 22.5118 11.1147 21.2105 12.224L20.0905 10.912C20.7945 10.2293 21.6692 9.71733 22.7145 9.376C23.7598 9.01333 24.7625 8.832 25.7225 8.832C27.5145 8.832 28.9438 9.25867 30.0105 10.112C31.0772 10.944 31.6105 12.2987 31.6105 14.176V17.792ZM27.7705 16.576C26.9598 16.576 26.1705 16.6293 25.4025 16.736C24.6558 16.8427 23.9732 17.024 23.3545 17.28C22.7572 17.536 22.2772 17.8773 21.9145 18.304C21.5518 18.7307 21.3705 19.264 21.3705 19.904C21.3705 20.352 21.4665 20.7573 21.6585 21.12C21.8718 21.4613 22.1385 21.7493 22.4585 21.984C22.7785 22.1973 23.1305 22.368 23.5145 22.496C23.9198 22.6027 24.3252 22.656 24.7305 22.656C25.7545 22.656 26.5972 22.5067 27.2585 22.208C27.9198 21.9093 28.4425 21.5253 28.8265 21.056C29.2318 20.5653 29.5092 20.0213 29.6585 19.424C29.8078 18.8053 29.8825 18.1867 29.8825 17.568V16.576H27.7705ZM40.8763 28.576C40.5136 29.536 40.0123 30.2933 39.3723 30.848C38.7323 31.4027 37.8789 31.68 36.8123 31.68C36.4923 31.68 36.1723 31.648 35.8523 31.584C35.5323 31.5413 35.2229 31.4773 34.9243 31.392L35.1163 29.6C35.3936 29.6853 35.6709 29.76 35.9483 29.824C36.2469 29.9093 36.5456 29.952 36.8443 29.952C37.1856 29.952 37.4843 29.8773 37.7403 29.728C38.0176 29.5787 38.2523 29.3867 38.4443 29.152C38.6363 28.9173 38.7963 28.6507 38.9243 28.352C39.0736 28.0747 39.2016 27.7867 39.3083 27.488L40.6523 24.064L34.6363 9.216H36.7803L41.6763 21.664L46.4443 9.216H48.4923L40.8763 28.576ZM70.4663 13.376C70.4663 13.0987 70.4556 12.768 70.4343 12.384C70.4129 11.9787 70.3916 11.5733 70.3703 11.168C70.3703 10.7627 70.3596 10.3893 70.3383 10.048C70.3169 9.68533 70.3063 9.408 70.3063 9.216H72.2263C72.2476 9.77067 72.2583 10.304 72.2583 10.816C72.2796 11.328 72.3116 11.6587 72.3543 11.808H72.4503C72.8343 10.9973 73.4743 10.304 74.3703 9.728C75.2663 9.13067 76.3116 8.832 77.5063 8.832C78.4876 8.832 79.3836 9.088 80.1943 9.6C81.0049 10.0907 81.5916 10.9013 81.9543 12.032C82.4236 10.9227 83.1169 10.112 84.0343 9.6C84.9729 9.088 85.9543 8.832 86.9783 8.832C88.1303 8.832 89.0689 9.01333 89.7943 9.376C90.5196 9.73867 91.0849 10.2187 91.4903 10.816C91.9169 11.392 92.2049 12.064 92.3543 12.832C92.5249 13.6 92.6103 14.3893 92.6103 15.2V24H90.6903V15.296C90.6903 14.6987 90.6369 14.1227 90.5303 13.568C90.4236 12.992 90.2316 12.48 89.9543 12.032C89.6983 11.584 89.3249 11.232 88.8343 10.976C88.3649 10.6987 87.7463 10.56 86.9783 10.56C86.0823 10.56 85.3463 10.7307 84.7703 11.072C84.1943 11.392 83.7356 11.808 83.3943 12.32C83.0743 12.832 82.8396 13.3867 82.6903 13.984C82.5623 14.5813 82.4983 15.1467 82.4983 15.68V24H80.5783V15.104C80.5783 13.7387 80.3223 12.64 79.8103 11.808C79.3196 10.976 78.5516 10.56 77.5063 10.56C76.8023 10.56 76.1303 10.688 75.4903 10.944C74.8716 11.1787 74.3276 11.552 73.8583 12.064C73.4103 12.5547 73.0476 13.184 72.7703 13.952C72.5143 14.6987 72.3863 15.584 72.3863 16.608V24H70.4663V13.376ZM110.772 21.216C110.026 22.3467 109.098 23.1573 107.988 23.648C106.9 24.1387 105.695 24.384 104.372 24.384C103.242 24.384 102.218 24.192 101.3 23.808C100.383 23.424 99.5936 22.8907 98.9323 22.208C98.2709 21.504 97.7589 20.6827 97.3963 19.744C97.0549 18.784 96.8843 17.728 96.8843 16.576C96.8843 15.4667 97.0656 14.4427 97.4283 13.504C97.7909 12.5653 98.3029 11.7547 98.9643 11.072C99.6256 10.368 100.404 9.824 101.3 9.44C102.196 9.03467 103.188 8.832 104.276 8.832C105.407 8.832 106.399 9.03467 107.252 9.44C108.127 9.824 108.852 10.3467 109.428 11.008C110.026 11.648 110.474 12.384 110.772 13.216C111.071 14.048 111.22 14.8907 111.22 15.744V17.088H98.8043C98.8043 17.4933 98.8789 18.016 99.0283 18.656C99.1989 19.2747 99.4976 19.8827 99.9243 20.48C100.351 21.0773 100.916 21.5893 101.62 22.016C102.346 22.4427 103.274 22.656 104.404 22.656C105.386 22.656 106.335 22.4213 107.252 21.952C108.17 21.4827 108.874 20.8427 109.364 20.032L110.772 21.216ZM109.3 15.36C109.3 14.6987 109.162 14.08 108.884 13.504C108.628 12.928 108.266 12.4267 107.796 12C107.348 11.552 106.804 11.2 106.164 10.944C105.546 10.688 104.884 10.56 104.18 10.56C103.135 10.56 102.26 10.7733 101.556 11.2C100.874 11.6267 100.33 12.1173 99.9243 12.672C99.5189 13.2267 99.2309 13.7707 99.0603 14.304C98.8896 14.816 98.8043 15.168 98.8043 15.36H109.3Z" fill="white"/>
<path d="M50.8568 19.936L59.6568 11.424C59.9128 11.168 60.1794 10.9013 60.4568 10.624C60.7341 10.3253 60.9794 10.016 61.1928 9.696C61.4274 9.376 61.6194 9.04533 61.7688 8.704C61.9181 8.34133 61.9928 7.968 61.9928 7.584C61.9928 7.11467 61.8968 6.69867 61.7048 6.336C61.5341 5.97333 61.2994 5.664 61.0008 5.408C60.7021 5.152 60.3501 4.96 59.9448 4.832C59.5608 4.68267 59.1448 4.608 58.6968 4.608C57.7368 4.608 56.9474 4.88533 56.3288 5.44C55.7101 5.99467 55.3368 6.74133 55.2088 7.68L51.1768 7.36C51.2621 6.31467 51.5074 5.39733 51.9128 4.608C52.3394 3.79733 52.8834 3.12533 53.5448 2.592C54.2061 2.05867 54.9741 1.65333 55.8488 1.376C56.7234 1.09867 57.6728 0.959999 58.6968 0.959999C59.7208 0.959999 60.6701 1.09867 61.5448 1.376C62.4408 1.632 63.2194 2.02667 63.8808 2.56C64.5421 3.072 65.0648 3.73333 65.4488 4.544C65.8328 5.35467 66.0248 6.304 66.0248 7.392C66.0248 8.82133 65.6941 10.0587 65.0328 11.104C64.3928 12.128 63.5608 13.1093 62.5368 14.048L55.5288 20.544H66.0248V24H50.8568V19.936Z" fill="#EA4966"/>
</svg>